<?xml version="1.0" standalone="no"?>
<!DOCTYPE svg PUBLIC "-//W3C//DTD SVG 20010904//EN"
 "http://www.w3.org/TR/2001/REC-SVG-20010904/DTD/svg10.dtd">
<svg version="1.0" xmlns="http://www.w3.org/2000/svg"
 width="500.000000pt" height="500.000000pt" viewBox="0 0 500.000000 500.000000"
 preserveAspectRatio="xMidYMid meet">

<g transform="translate(0.000000,500.000000) scale(0.100000,-0.100000)"
fill="#000000" stroke="none">
<path d="M3380 3886 c-263 -58 -620 -302 -1093 -750 -85 -79 -143 -126 -170
-137 -116 -44 -172 -102 -198 -206 -10 -37 -34 -74 -108 -162 -52 -63 -110
-135 -130 -160 -87 -115 -121 -160 -160 -218 l-43 -63 -139 0 -139 0 0 -70 0
-70 96 0 c53 0 94 -3 92 -7 -8 -16 -61 -129 -78 -168 -73 -164 -66 -271 22
-328 47 -30 128 -39 128 -13 0 8 38 29 93 51 201 80 385 193 686 424 37 28 63
41 85 41 l31 -1 -50 -46 c-27 -25 -103 -88 -167 -140 -106 -86 -141 -117 -105
-97 47 28 179 122 274 196 61 49 113 88 116 88 3 0 20 15 39 32 18 18 87 81
153 140 134 119 291 277 350 353 22 28 88 109 148 182 150 184 336 434 437
587 46 70 86 123 88 117 9 -28 -146 -278 -293 -472 -42 -54 -73 -104 -70 -109
3 -5 0 -12 -6 -16 -8 -5 -9 -3 -4 7 5 8 4 10 0 6 -5 -4 -10 -14 -11 -22 -2
-13 39 -15 292 -15 l294 0 0 65 0 65 -241 0 c-235 0 -241 0 -228 19 168 231
309 477 348 605 28 90 28 189 1 234 -27 43 -31 40 -13 -10 10 -28 13 -60 9
-90 -26 -196 -310 -607 -701 -1016 -105 -110 -274 -266 -281 -260 -5 6 39 60
237 289 150 174 276 329 266 329 -3 0 -31 -33 -63 -72 -138 -171 -301 -348
-525 -570 l-240 -238 -445 0 c-353 0 -444 3 -438 13 52 86 255 362 352 476
l29 34 6 -42 c18 -134 129 -230 277 -239 184 -10 314 109 314 288 0 92 -24
150 -84 209 -41 39 -129 81 -172 81 -19 0 -17 6 22 46 72 74 287 263 400 353
116 92 140 114 95 86 -107 -66 -267 -201 -471 -397 -84 -81 -104 -97 -104 -83
0 25 434 416 566 510 121 87 163 115 175 117 8 2 17 7 20 12 4 5 17 9 30 10
14 1 23 7 21 15 -1 7 2 10 7 7 5 -4 44 7 85 24 88 34 156 48 156 31 0 -7 18
-10 48 -9 26 1 64 -2 85 -6 29 -6 37 -4 37 7 0 42 112 18 124 -26 15 -56 -4
-139 -54 -236 -12 -24 -17 -40 -12 -37 13 8 65 119 87 185 21 65 17 171 -9
196 -9 9 -16 21 -16 26 0 5 -11 14 -25 21 -13 6 -22 14 -19 19 2 4 -4 7 -13 7
-10 0 -25 2 -33 5 -8 3 -40 -1 -70 -7z m30 -136 c0 -5 -8 -10 -17 -10 -15 0
-16 2 -3 10 19 12 20 12 20 0z m-1120 -883 c112 -59 111 -235 -1 -295 -114
-62 -249 18 -249 148 0 131 132 209 250 147z m252 -628 c-9 -12 -36 -41 -59
-64 -37 -38 -43 -41 -43 -22 0 14 14 32 36 47 20 14 43 33 52 43 23 24 35 21
14 -4z m-317 -197 c-59 -54 -305 -222 -380 -260 -55 -29 -156 -73 -180 -79
-54 -14 -200 -9 -190 7 2 4 -7 12 -20 18 -34 16 -42 57 -20 99 15 27 16 38 7
59 -15 31 -15 77 -2 126 l11 37 392 1 c224 0 387 -3 382 -8z"/>
<path d="M3436 3368 l-18 -33 21 25 c18 22 26 40 18 40 -1 0 -11 -15 -21 -32z"/>
<path d="M3380 3280 c-6 -11 -8 -20 -6 -20 3 0 10 9 16 20 6 11 8 20 6 20 -3
0 -10 -9 -16 -20z"/>
<path d="M3343 3228 c-23 -30 -24 -41 -2 -21 12 12 20 25 17 28 -3 3 -10 0
-15 -7z"/>
<path d="M3279 3133 c-29 -35 -41 -53 -36 -53 2 0 17 16 31 35 28 36 31 49 5
18z"/>
<path d="M1160 2720 l0 -280 65 0 65 0 2 167 3 167 120 -167 120 -167 55 0 55
0 -3 280 -3 280 -59 0 -60 0 0 -167 c0 -134 -3 -165 -12 -155 -7 7 -63 81
-124 165 l-110 152 -57 3 -57 3 0 -281z"/>
<path d="M2600 2905 l0 -65 214 0 214 0 39 48 c21 26 45 55 52 65 13 16 -1 17
-253 17 l-266 0 0 -65z"/>
<path d="M2790 2599 c0 -18 2 -19 15 -9 8 7 15 16 15 21 0 5 -7 9 -15 9 -9 0
-15 -9 -15 -21z"/>
<path d="M3023 2570 c-24 -26 -43 -50 -43 -53 0 -4 38 -7 85 -7 l85 0 0 55 0
55 -42 -1 c-38 -1 -48 -7 -85 -49z"/>
<path d="M3430 2340 l0 -280 190 0 190 0 0 60 0 60 -125 0 -125 0 0 220 0 220
-65 0 -65 0 0 -280z"/>
<path d="M2847 2382 l-58 -59 -6 -131 -6 -132 191 0 192 0 0 55 0 55 -125 0
-125 0 0 60 0 60 110 0 110 0 0 55 0 55 -109 0 c-103 0 -110 1 -113 20 -3 18
-12 12 -61 -38z"/>
</g>
</svg>
